<svg width="109" height="107" viewBox="0 0 109 107" fill="none" xmlns="http://www.w3.org/2000/svg">
<path d="M56.9999 20C57.276 20 57.4999 19.7761 57.4999 19.5C57.4999 19.2239 57.276 19 56.9999 19V20ZM32.9999 82C33.276 82 33.4999 81.7761 33.4999 81.5C33.4999 81.2239 33.276 81 32.9999 81V82ZM47.9999 13C48.276 13 48.4999 12.7761 48.4999 12.5C48.4999 12.2239 48.276 12 47.9999 12V13ZM23.9999 75C24.276 75 24.4999 74.7761 24.4999 74.5C24.4999 74.2239 24.276 74 23.9999 74V75ZM27.9999 29.5V77H28.9999V29.5H27.9999ZM56.9999 19H38.4999V20H56.9999V19ZM27.9999 77C27.9999 79.7614 30.2385 82 32.9999 82V81C30.7907 81 28.9999 79.2091 28.9999 77H27.9999ZM28.9999 29.5C28.9999 27.1288 29.0009 25.4008 29.1785 24.0803C29.3541 22.7741 29.6941 21.9419 30.3179 21.318L29.6108 20.6109C28.7702 21.4515 28.3779 22.53 28.1874 23.947C27.9988 25.3496 27.9999 27.1571 27.9999 29.5H28.9999ZM38.4999 19C36.157 19 34.3495 18.9989 32.9469 19.1875C31.5299 19.378 30.4514 19.7703 29.6108 20.6109L30.3179 21.318C30.9418 20.6942 31.774 20.3542 33.0802 20.1786C34.4007 20.0011 36.1287 20 38.4999 20V19ZM18.9999 22.5V70H19.9999V22.5H18.9999ZM47.9999 12H29.4999V13H47.9999V12ZM18.9999 70C18.9999 72.7614 21.2385 75 23.9999 75V74C21.7907 74 19.9999 72.2091 19.9999 70H18.9999ZM19.9999 22.5C19.9999 20.1288 20.0009 18.4008 20.1785 17.0803C20.3541 15.7741 20.694 14.9419 21.3179 14.318L20.6108 13.6109C19.7702 14.4515 19.3779 15.53 19.1874 16.947C18.9988 18.3496 18.9999 20.1571 18.9999 22.5H19.9999ZM29.4999 12C27.157 12 25.3495 11.9989 23.9469 12.1875C22.5299 12.378 21.4514 12.7703 20.6108 13.6109L21.3179 14.318C21.9417 13.6942 22.774 13.3542 24.0801 13.1786C25.4007 13.0011 27.1287 13 29.4999 13V12Z" fill="#4BAEE9"/>
<path d="M69.4999 43.5C69.4999 43.7761 69.7237 44 69.9999 44C70.276 44 70.4999 43.7761 70.4999 43.5H69.4999ZM70.4999 73.5C70.4999 73.2239 70.276 73 69.9999 73C69.7237 73 69.4999 73.2239 69.4999 73.5H70.4999ZM65.9999 49.5C65.9999 49.7761 66.2237 50 66.4999 50C66.776 50 66.9999 49.7761 66.9999 49.5H65.9999ZM66.9999 73.5C66.9999 73.2239 66.776 73 66.4999 73C66.2237 73 65.9999 73.2239 65.9999 73.5H66.9999ZM65.6212 83.1213L65.2676 82.7678L65.6212 83.1213ZM42.3786 83.1213L42.7321 82.7678H42.7321L42.3786 83.1213ZM37.4999 36.5V77.5H38.4999V36.5H37.4999ZM47.9999 88H59.9999V87H47.9999V88ZM59.9999 26H47.9999V27H59.9999V26ZM70.4999 43.5V36.5H69.4999V43.5H70.4999ZM70.4999 77.5V73.5H69.4999V77.5H70.4999ZM59.9999 27C62.371 27 64.0991 27.0011 65.4196 27.1786C66.7257 27.3542 67.558 27.6942 68.1819 28.318L68.889 27.6109C68.0483 26.7703 66.9699 26.378 65.5529 26.1875C64.1502 25.9989 62.3428 26 59.9999 26V27ZM70.4999 36.5C70.4999 34.1571 70.5009 32.3496 70.3124 30.947C70.1218 29.53 69.7296 28.4515 68.889 27.6109L68.1819 28.318C68.8057 28.9419 69.1457 29.7741 69.3213 31.0803C69.4988 32.4008 69.4999 34.1288 69.4999 36.5H70.4999ZM59.9999 88C62.3428 88 64.1502 88.0011 65.5529 87.8125C66.9699 87.622 68.0483 87.2297 68.889 86.3891L68.1819 85.682C67.558 86.3058 66.7257 86.6458 65.4196 86.8214C64.0991 86.9989 62.371 87 59.9999 87V88ZM69.4999 77.5C69.4999 79.8712 69.4988 81.5992 69.3213 82.9197C69.1457 84.2259 68.8057 85.0581 68.1819 85.682L68.889 86.3891C69.7296 85.5485 70.1218 84.47 70.3124 83.053C70.5009 81.6503 70.4999 79.8429 70.4999 77.5H69.4999ZM37.4999 77.5C37.4999 79.8429 37.4988 81.6503 37.6874 83.053C37.8779 84.47 38.2702 85.5485 39.1108 86.3891L39.8179 85.682C39.194 85.0581 38.8541 84.2259 38.6785 82.9197C38.5009 81.5992 38.4999 79.8712 38.4999 77.5H37.4999ZM47.9999 87C45.6287 87 43.9007 86.9989 42.5801 86.8214C41.274 86.6458 40.4417 86.3058 39.8179 85.682L39.1108 86.3891C39.9514 87.2297 41.0299 87.622 42.4469 87.8125C43.8495 88.0011 45.657 88 47.9999 88V87ZM38.4999 36.5C38.4999 34.1288 38.5009 32.4008 38.6785 31.0803C38.8541 29.7741 39.194 28.9419 39.8179 28.318L39.1108 27.6109C38.2702 28.4515 37.8779 29.53 37.6874 30.947C37.4988 32.3496 37.4999 34.1571 37.4999 36.5H38.4999ZM47.9999 26C45.657 26 43.8495 25.9989 42.4469 26.1875C41.0299 26.378 39.9514 26.7703 39.1108 27.6109L39.8179 28.318C40.4417 27.6942 41.274 27.3542 42.5801 27.1786C43.9007 27.0011 45.6287 27 47.9999 27V26ZM40.9999 36V78H41.9999V36H40.9999ZM47.4999 84.5H60.4999V83.5H47.4999V84.5ZM60.4999 29.5H47.4999V30.5H60.4999V29.5ZM66.9999 49.5V36H65.9999V49.5H66.9999ZM66.9999 78V73.5H65.9999V78H66.9999ZM60.4999 30.5C61.9282 30.5 62.9492 30.5011 63.7251 30.6054C64.4866 30.7078 64.9367 30.9013 65.2676 31.2322L65.9748 30.5251C65.427 29.9774 64.7307 29.7316 63.8583 29.6143C63.0003 29.4989 61.9 29.5 60.4999 29.5V30.5ZM66.9999 36C66.9999 34.5999 67.0009 33.4996 66.8856 32.6416C66.7683 31.7692 66.5225 31.0729 65.9748 30.5251L65.2676 31.2322C65.5986 31.5632 65.7921 32.0133 65.8945 32.7748C65.9988 33.5507 65.9999 34.5717 65.9999 36H66.9999ZM60.4999 84.5C61.9 84.5 63.0003 84.5011 63.8583 84.3857C64.7307 84.2684 65.427 84.0226 65.9748 83.4749L65.2676 82.7678C64.9367 83.0987 64.4866 83.2922 63.7251 83.3946C62.9492 83.4989 61.9282 83.5 60.4999 83.5V84.5ZM65.9999 78C65.9999 79.4283 65.9988 80.4493 65.8945 81.2252C65.7921 81.9867 65.5986 82.4368 65.2676 82.7678L65.9748 83.4749C66.5225 82.9272 66.7683 82.2308 66.8856 81.3584C67.0009 80.5004 66.9999 79.4001 66.9999 78H65.9999ZM40.9999 78C40.9999 79.4001 40.9988 80.5004 41.1142 81.3584C41.2315 82.2308 41.4773 82.9272 42.025 83.4749L42.7321 82.7678C42.4012 82.4368 42.2076 81.9867 42.1053 81.2252C42.0009 80.4493 41.9999 79.4283 41.9999 78H40.9999ZM47.4999 83.5C46.0715 83.5 45.0506 83.4989 44.2747 83.3946C43.5132 83.2922 43.0631 83.0987 42.7321 82.7678L42.025 83.4749C42.5727 84.0226 43.2691 84.2684 44.1414 84.3857C44.9994 84.5011 46.0998 84.5 47.4999 84.5V83.5ZM41.9999 36C41.9999 34.5717 42.0009 33.5507 42.1053 32.7748C42.2076 32.0133 42.4012 31.5632 42.7321 31.2322L42.025 30.5251C41.4773 31.0729 41.2315 31.7692 41.1142 32.6416C40.9988 33.4996 40.9999 34.5999 40.9999 36H41.9999ZM47.4999 29.5C46.0998 29.5 44.9994 29.4989 44.1414 29.6143C43.2691 29.7316 42.5727 29.9774 42.025 30.5251L42.7321 31.2322C43.0631 30.9013 43.5132 30.7078 44.2747 30.6054C45.0506 30.5011 46.0715 30.5 47.4999 30.5V29.5Z" fill="#4BAEE9"/>
<path d="M72.4999 53.5C72.4999 53.7761 72.7237 54 72.9999 54C73.276 54 73.4999 53.7761 73.4999 53.5H72.4999ZM81.4999 53.5C81.4999 53.7761 81.7237 54 81.9999 54C82.276 54 82.4999 53.7761 82.4999 53.5H81.4999ZM77.9999 58.5C77.9999 58.2239 77.776 58 77.4999 58C77.2237 58 76.9999 58.2239 76.9999 58.5H77.9999ZM83.4999 53.5C83.4999 53.7761 83.7237 54 83.9999 54C84.276 54 84.4999 53.7761 84.4999 53.5H83.4999ZM70.4999 53.5C70.4999 53.7761 70.7237 54 70.9999 54C71.276 54 71.4999 53.7761 71.4999 53.5H70.4999ZM73.4999 53.5V51H72.4999V53.5H73.4999ZM81.4999 51V53.5H82.4999V51H81.4999ZM77.9999 60.5V58.5H76.9999V60.5H77.9999ZM84.4999 53.5V51H83.4999V53.5H84.4999ZM70.4999 51V53.5H71.4999V51H70.4999ZM84.4999 51C84.4999 47.134 81.3659 44 77.4999 44V45C80.8136 45 83.4999 47.6863 83.4999 51H84.4999ZM77.4999 63C76.9476 63 76.4999 62.5523 76.4999 62H75.4999C75.4999 63.1046 76.3953 64 77.4999 64V63ZM79.4999 62C79.4999 60.8954 78.6044 60 77.4999 60V61C78.0522 61 78.4999 61.4477 78.4999 62H79.4999ZM76.4999 62C76.4999 61.4477 76.9476 61 77.4999 61V60C76.3953 60 75.4999 60.8954 75.4999 62H76.4999ZM77.4999 47C79.709 47 81.4999 48.7909 81.4999 51H82.4999C82.4999 48.2386 80.2613 46 77.4999 46V47ZM78.4999 62C78.4999 62.5523 78.0522 63 77.4999 63V64C78.6044 64 79.4999 63.1046 79.4999 62H78.4999ZM77.4999 44C73.6339 44 70.4999 47.134 70.4999 51H71.4999C71.4999 47.6863 74.1862 45 77.4999 45V44ZM73.4999 51C73.4999 48.7909 75.2907 47 77.4999 47V46C74.7385 46 72.4999 48.2386 72.4999 51H73.4999ZM88.4999 60.0714V61.5H89.4999V60.0714H88.4999ZM80.9999 69H73.9999V70H80.9999V69ZM66.4999 61.5V60.0714H65.4999V61.5H66.4999ZM72.5713 54H82.4284V53H72.5713V54ZM73.9999 69C69.8577 69 66.4999 65.6421 66.4999 61.5H65.4999C65.4999 66.1944 69.3055 70 73.9999 70V69ZM88.4999 61.5C88.4999 65.6421 85.142 69 80.9999 69V70C85.6943 70 89.4999 66.1944 89.4999 61.5H88.4999ZM89.4999 60.0714C89.4999 56.166 86.3339 53 82.4284 53V54C85.7816 54 88.4999 56.7183 88.4999 60.0714H89.4999ZM66.4999 60.0714C66.4999 56.7183 69.2181 54 72.5713 54V53C68.6659 53 65.4999 56.166 65.4999 60.0714H66.4999Z" fill="#4BAEE9"/>
</svg>
