<svg width="38" height="35" viewBox="0 0 38 35" fill="none" xmlns="http://www.w3.org/2000/svg">
<path d="M29.4375 26.25C31.1219 26.25 32.5 24.8945 32.5 23.1875C32.5 21.4805 31.1219 20.125 29.4375 20.125C27.7531 20.125 26.375 21.4805 26.375 23.1875C26.375 24.8945 27.7531 26.25 29.4375 26.25Z" stroke="#4BAEE9" stroke-miterlimit="10"/>
<path d="M8.4375 26.25C10.1219 26.25 11.5 24.8945 11.5 23.1875C11.5 21.4805 10.1219 20.125 8.4375 20.125C6.75313 20.125 5.375 21.4805 5.375 23.1875C5.375 24.8945 6.75313 26.25 8.4375 26.25Z" stroke="#4BAEE9" stroke-miterlimit="10"/>
<path d="M29.4375 24.5C30.1594 24.5 30.75 23.9191 30.75 23.1875C30.75 22.4559 30.1594 21.875 29.4375 21.875C28.7156 21.875 28.125 22.4559 28.125 23.1875C28.125 23.9191 28.7156 24.5 29.4375 24.5Z" stroke="#4BAEE9" stroke-miterlimit="10"/>
<path d="M8.4375 24.5C9.15938 24.5 9.75 23.9191 9.75 23.1875C9.75 22.4559 9.15938 21.875 8.4375 21.875C7.71563 21.875 7.125 22.4559 7.125 23.1875C7.125 23.9191 7.71563 24.5 8.4375 24.5Z" stroke="#4BAEE9" stroke-miterlimit="10"/>
<path d="M34.1445 23.625H36.4549C36.665 23.625 36.875 23.4625 36.875 23.1916V20.2117C36.875 19.995 36.7175 19.7783 36.4549 19.7783V19.7783C36.1649 19.7783 35.9298 19.5432 35.9298 19.2531V15.4981C35.9298 15.0646 35.1422 14.7396 34.197 14.5228V14.5228C32.7918 14.1776 31.5963 13.258 30.9021 11.9884L28.5259 7.64203C28.0008 6.6668 27.2131 6.125 26.1629 6.125H4.48617C3.65845 6.125 3.24459 6.125 2.96254 6.36984C2.6805 6.61468 2.62234 7.02444 2.50602 7.84395L1 18.4545C1 21.4375 2.4808 23.5708 3.58351 23.5708H4.16112" stroke="#4BAEE9" stroke-miterlimit="10"/>
<path d="M13.25 23.625H20.4931H23.6528H24.625" stroke="#4BAEE9" stroke-miterlimit="10"/>
<path d="M25.939 8.75C25.647 8.75 25.5011 8.75 25.3809 8.78026C25.0239 8.87013 24.7451 9.14887 24.6553 9.50586C24.625 9.62605 24.625 9.77204 24.625 10.064V13.0564C24.625 13.8241 24.625 14.208 24.8247 14.4746C24.8817 14.5507 24.9493 14.6183 25.0254 14.6753C25.292 14.875 25.6759 14.875 26.4436 14.875V14.875C27.4847 14.875 28.0052 14.875 28.2974 14.5861C28.3795 14.5049 28.4469 14.4102 28.4967 14.306C28.6738 13.9352 28.5031 13.4435 28.1617 12.46L27.1804 9.63311C27.1103 9.43108 27.0752 9.33006 27.0261 9.24594C26.8814 8.99799 26.6371 8.82419 26.3554 8.76879C26.2598 8.75 26.1529 8.75 25.939 8.75V8.75Z" stroke="#4BAEE9" stroke-miterlimit="10"/>
<path d="M22 6.125V7.5C22 12.214 22 14.5711 20.5355 16.0355C19.0711 17.5 16.714 17.5 12 17.5H1" stroke="#4BAEE9"/>
</svg>
