<svg width="35" height="35" viewBox="0 0 35 35" fill="none" xmlns="http://www.w3.org/2000/svg">
<path d="M25.3243 13.3129C25.0597 13.3044 24.8061 13.2 24.6187 13.013L18.5047 6.91452C18.3818 6.79199 18.293 6.63961 18.2468 6.47235L17.5925 4.09937C17.5158 3.8213 17.3228 3.58988 17.063 3.46455L13.486 1.73887C13.1049 1.55498 12.6492 1.63093 12.3483 1.92853L11.841 2.43027C11.5349 2.73296 11.4569 3.19756 11.6473 3.58362L13.383 7.10251C13.5101 7.36024 13.7419 7.55082 14.0194 7.62566L16.4278 8.27528C16.5949 8.32036 16.7475 8.40805 16.8705 8.52977L22.9951 14.587C23.1762 14.7661 23.2816 15.0071 23.2963 15.2613C23.3249 15.7546 23.3877 16.57 23.5024 16.8725C23.6151 17.0954 24.066 17.5414 24.066 17.5414C24.066 17.5414 24.066 17.5414 24.066 17.5414L30.5617 23.9657C30.7342 24.1363 30.9636 24.2459 31.2053 24.2249C32.8158 24.0849 34.3944 22.4907 34.4524 21.0583C34.4613 20.8377 34.3509 20.6348 34.1932 20.4802L27.6182 14.0311C27.6172 14.0302 27.6163 14.0292 27.6153 14.0283C27.5913 14.0047 27.269 13.6898 27.0408 13.569C26.9769 13.5352 26.9082 13.5104 26.8396 13.4875C26.4839 13.3689 25.7763 13.3274 25.3243 13.3129Z" stroke="#4BAEE9" stroke-miterlimit="10" stroke-linecap="round" stroke-linejoin="round"/>
<path d="M20.7407 26.1261V26.1261C20.6325 26.1261 20.5293 26.0832 20.4529 26.0066C17.5941 23.1376 13.8971 19.9158 12.1739 18.2665C10.2013 16.3713 9.91948 14.5319 9.80676 13.1941C9.69404 11.9678 9.41223 10.9087 8.62318 10.2398C7.54656 9.33274 5.90572 9.03952 4.63873 9.22195C3.95846 9.3199 3.90342 10.1059 4.45785 10.5121L5.89236 11.563C6.18625 11.7783 6.33979 12.1364 6.29316 12.4977L6.09752 14.0133C6.0556 14.3382 5.85725 14.6219 5.56657 14.7728L4.33252 15.4136C3.99228 15.5902 3.58099 15.5568 3.27371 15.3276L1.903 14.3049C1.29711 13.8528 0.478339 14.2226 0.580039 14.9717C0.709577 15.9259 1.08723 17.0866 2.08534 17.8763C2.81803 18.4338 3.60708 18.7125 4.39613 18.7125C7.10145 18.6567 7.83414 19.0469 9.41223 20.4962C10.4489 21.4675 12.9118 24.2673 16.9543 28.4403C17.2042 28.6984 17.2852 29.0694 17.2441 29.4263C17.2183 29.65 17.2162 29.8749 17.2464 30.0837C17.4155 32.1461 19.2754 33.7069 21.3607 33.5397C23.4461 33.3724 25.0241 31.533 24.8551 29.4706C24.686 27.4639 22.8261 25.9588 20.7407 26.1261Z" stroke="#4BAEE9" stroke-miterlimit="10" stroke-linecap="round" stroke-linejoin="round"/>
<path d="M22.1749 30.6245C22.0198 30.9453 21.7057 31.1593 21.3505 31.1863L21.0175 31.2116C20.6705 31.238 20.3347 31.0821 20.131 30.8L19.9564 30.5582C19.7446 30.2651 19.7077 29.8804 19.8597 29.5523L19.9869 29.2779C20.1392 28.9493 20.4572 28.7287 20.8183 28.7013L21.1259 28.6779C21.4807 28.6509 21.8231 28.8144 22.025 29.1074L22.214 29.3815C22.4182 29.6777 22.4476 30.0606 22.291 30.3844L22.1749 30.6245Z" stroke="#4BAEE9" stroke-miterlimit="10" stroke-linecap="round" stroke-linejoin="round"/>
</svg>
