<svg width="100" height="100" viewBox="0 0 100 100" fill="none" xmlns="http://www.w3.org/2000/svg">
<path d="M60.4999 37C60.4999 37.2761 60.7237 37.5 60.9999 37.5C61.276 37.5 61.4999 37.2761 61.4999 37H60.4999ZM61.4999 67C61.4999 66.7239 61.276 66.5 60.9999 66.5C60.7237 66.5 60.4999 66.7239 60.4999 67H61.4999ZM56.9999 43C56.9999 43.2761 57.2237 43.5 57.4999 43.5C57.776 43.5 57.9999 43.2761 57.9999 43H56.9999ZM57.9999 67C57.9999 66.7239 57.776 66.5 57.4999 66.5C57.2237 66.5 56.9999 66.7239 56.9999 67H57.9999ZM56.6212 76.6213L56.2676 76.2678L56.6212 76.6213ZM33.3786 76.6213L33.7321 76.2678H33.7321L33.3786 76.6213ZM28.4999 30V71H29.4999V30H28.4999ZM38.9999 81.5H50.9999V80.5H38.9999V81.5ZM50.9999 19.5H38.9999V20.5H50.9999V19.5ZM61.4999 37V30H60.4999V37H61.4999ZM61.4999 71V67H60.4999V71H61.4999ZM50.9999 20.5C53.371 20.5 55.0991 20.5011 56.4196 20.6786C57.7257 20.8542 58.558 21.1942 59.1819 21.818L59.889 21.1109C59.0483 20.2703 57.9699 19.878 56.5529 19.6875C55.1502 19.4989 53.3428 19.5 50.9999 19.5V20.5ZM61.4999 30C61.4999 27.6571 61.5009 25.8496 61.3124 24.447C61.1218 23.03 60.7296 21.9515 59.889 21.1109L59.1819 21.818C59.8057 22.4419 60.1457 23.2741 60.3213 24.5803C60.4988 25.9008 60.4999 27.6288 60.4999 30H61.4999ZM50.9999 81.5C53.3428 81.5 55.1502 81.5011 56.5529 81.3125C57.9699 81.122 59.0483 80.7297 59.889 79.8891L59.1819 79.182C58.558 79.8058 57.7257 80.1458 56.4196 80.3214C55.0991 80.4989 53.371 80.5 50.9999 80.5V81.5ZM60.4999 71C60.4999 73.3712 60.4988 75.0992 60.3213 76.4197C60.1457 77.7259 59.8057 78.5581 59.1819 79.182L59.889 79.8891C60.7296 79.0485 61.1218 77.97 61.3124 76.553C61.5009 75.1503 61.4999 73.3429 61.4999 71H60.4999ZM28.4999 71C28.4999 73.3429 28.4988 75.1503 28.6874 76.553C28.8779 77.97 29.2702 79.0485 30.1108 79.8891L30.8179 79.182C30.194 78.5581 29.8541 77.7259 29.6785 76.4197C29.5009 75.0992 29.4999 73.3712 29.4999 71H28.4999ZM38.9999 80.5C36.6287 80.5 34.9007 80.4989 33.5801 80.3214C32.274 80.1458 31.4417 79.8058 30.8179 79.182L30.1108 79.8891C30.9514 80.7297 32.0299 81.122 33.4469 81.3125C34.8495 81.5011 36.657 81.5 38.9999 81.5V80.5ZM29.4999 30C29.4999 27.6288 29.5009 25.9008 29.6785 24.5803C29.8541 23.2741 30.194 22.4419 30.8179 21.818L30.1108 21.1109C29.2702 21.9515 28.8779 23.03 28.6874 24.447C28.4988 25.8496 28.4999 27.6571 28.4999 30H29.4999ZM38.9999 19.5C36.657 19.5 34.8495 19.4989 33.4469 19.6875C32.0299 19.878 30.9514 20.2703 30.1108 21.1109L30.8179 21.818C31.4417 21.1942 32.274 20.8542 33.5801 20.6786C34.9007 20.5011 36.6287 20.5 38.9999 20.5V19.5ZM31.9999 29.5V71.5H32.9999V29.5H31.9999ZM38.4999 78H51.4999V77H38.4999V78ZM51.4999 23H38.4999V24H51.4999V23ZM57.9999 43V29.5H56.9999V43H57.9999ZM57.9999 71.5V67H56.9999V71.5H57.9999ZM51.4999 24C52.9282 24 53.9492 24.0011 54.7251 24.1054C55.4866 24.2078 55.9367 24.4013 56.2676 24.7322L56.9748 24.0251C56.427 23.4774 55.7307 23.2316 54.8583 23.1143C54.0003 22.9989 52.9 23 51.4999 23V24ZM57.9999 29.5C57.9999 28.0999 58.0009 26.9996 57.8856 26.1416C57.7683 25.2692 57.5225 24.5729 56.9748 24.0251L56.2676 24.7322C56.5986 25.0632 56.7921 25.5133 56.8945 26.2748C56.9988 27.0507 56.9999 28.0717 56.9999 29.5H57.9999ZM51.4999 78C52.9 78 54.0003 78.0011 54.8583 77.8857C55.7307 77.7684 56.427 77.5226 56.9748 76.9749L56.2676 76.2678C55.9367 76.5987 55.4866 76.7922 54.7251 76.8946C53.9492 76.9989 52.9282 77 51.4999 77V78ZM56.9999 71.5C56.9999 72.9283 56.9988 73.9493 56.8945 74.7252C56.7921 75.4867 56.5986 75.9368 56.2676 76.2678L56.9748 76.9749C57.5225 76.4272 57.7683 75.7308 57.8856 74.8584C58.0009 74.0004 57.9999 72.9001 57.9999 71.5H56.9999ZM31.9999 71.5C31.9999 72.9001 31.9988 74.0004 32.1142 74.8584C32.2315 75.7308 32.4773 76.4272 33.025 76.9749L33.7321 76.2678C33.4012 75.9368 33.2076 75.4867 33.1053 74.7252C33.0009 73.9493 32.9999 72.9283 32.9999 71.5H31.9999ZM38.4999 77C37.0715 77 36.0506 76.9989 35.2747 76.8946C34.5132 76.7922 34.0631 76.5987 33.7321 76.2678L33.025 76.9749C33.5727 77.5226 34.2691 77.7684 35.1414 77.8857C35.9994 78.0011 37.0998 78 38.4999 78V77ZM32.9999 29.5C32.9999 28.0717 33.0009 27.0507 33.1053 26.2748C33.2076 25.5133 33.4012 25.0632 33.7321 24.7322L33.025 24.0251C32.4773 24.5729 32.2315 25.2692 32.1142 26.1416C31.9988 26.9996 31.9999 28.0999 31.9999 29.5H32.9999ZM38.4999 23C37.0998 23 35.9994 22.9989 35.1414 23.1143C34.2691 23.2316 33.5727 23.4774 33.025 24.0251L33.7321 24.7322C34.0631 24.4013 34.5132 24.2078 35.2747 24.1054C36.0506 24.0011 37.0715 24 38.4999 24V23Z" fill="#4BAEE9"/>
<path d="M63.4999 47C63.4999 47.2761 63.7237 47.5 63.9999 47.5C64.276 47.5 64.4999 47.2761 64.4999 47H63.4999ZM72.4999 47C72.4999 47.2761 72.7237 47.5 72.9999 47.5C73.276 47.5 73.4999 47.2761 73.4999 47H72.4999ZM68.9999 52C68.9999 51.7239 68.776 51.5 68.4999 51.5C68.2237 51.5 67.9999 51.7239 67.9999 52H68.9999ZM74.4999 47C74.4999 47.2761 74.7237 47.5 74.9999 47.5C75.276 47.5 75.4999 47.2761 75.4999 47H74.4999ZM61.4999 47C61.4999 47.2761 61.7237 47.5 61.9999 47.5C62.276 47.5 62.4999 47.2761 62.4999 47H61.4999ZM64.4999 47V44.5H63.4999V47H64.4999ZM72.4999 44.5V47H73.4999V44.5H72.4999ZM68.9999 54V52H67.9999V54H68.9999ZM75.4999 47V44.5H74.4999V47H75.4999ZM61.4999 44.5V47H62.4999V44.5H61.4999ZM75.4999 44.5C75.4999 40.634 72.3659 37.5 68.4999 37.5V38.5C71.8136 38.5 74.4999 41.1863 74.4999 44.5H75.4999ZM68.4999 56.5C67.9476 56.5 67.4999 56.0523 67.4999 55.5H66.4999C66.4999 56.6046 67.3953 57.5 68.4999 57.5V56.5ZM70.4999 55.5C70.4999 54.3954 69.6044 53.5 68.4999 53.5V54.5C69.0522 54.5 69.4999 54.9477 69.4999 55.5H70.4999ZM67.4999 55.5C67.4999 54.9477 67.9476 54.5 68.4999 54.5V53.5C67.3953 53.5 66.4999 54.3954 66.4999 55.5H67.4999ZM68.4999 40.5C70.709 40.5 72.4999 42.2909 72.4999 44.5H73.4999C73.4999 41.7386 71.2613 39.5 68.4999 39.5V40.5ZM69.4999 55.5C69.4999 56.0523 69.0522 56.5 68.4999 56.5V57.5C69.6044 57.5 70.4999 56.6046 70.4999 55.5H69.4999ZM68.4999 37.5C64.6339 37.5 61.4999 40.634 61.4999 44.5H62.4999C62.4999 41.1863 65.1862 38.5 68.4999 38.5V37.5ZM64.4999 44.5C64.4999 42.2909 66.2907 40.5 68.4999 40.5V39.5C65.7385 39.5 63.4999 41.7386 63.4999 44.5H64.4999ZM79.4999 53.5714V55H80.4999V53.5714H79.4999ZM71.9999 62.5H64.9999V63.5H71.9999V62.5ZM57.4999 55V53.5714H56.4999V55H57.4999ZM63.5713 47.5H73.4284V46.5H63.5713V47.5ZM64.9999 62.5C60.8577 62.5 57.4999 59.1421 57.4999 55H56.4999C56.4999 59.6944 60.3055 63.5 64.9999 63.5V62.5ZM79.4999 55C79.4999 59.1421 76.142 62.5 71.9999 62.5V63.5C76.6943 63.5 80.4999 59.6944 80.4999 55H79.4999ZM80.4999 53.5714C80.4999 49.666 77.3339 46.5 73.4284 46.5V47.5C76.7816 47.5 79.4999 50.2183 79.4999 53.5714H80.4999ZM57.4999 53.5714C57.4999 50.2183 60.2181 47.5 63.5713 47.5V46.5C59.6659 46.5 56.4999 49.666 56.4999 53.5714H57.4999Z" fill="#4BAEE9"/>
</svg>
