<svg width="35" height="35" viewBox="0 0 35 35" fill="none" xmlns="http://www.w3.org/2000/svg">
<path d="M15.2774 24.233C15.2774 23.6493 15.507 23.1117 15.8893 22.7126C16.2202 22.3673 16.4775 21.8983 16.3203 21.4465C16.2342 21.1991 16.1378 20.9585 16.0311 20.7263C15.8277 20.2836 15.2979 20.1394 14.8107 20.1338C14.254 20.1273 13.6908 19.911 13.2847 19.47C12.8612 19.0455 12.6454 18.4962 12.6373 17.9546C12.6295 17.4351 12.4817 16.8574 12.0149 16.6291C11.8217 16.5346 11.6259 16.4464 11.4255 16.3664C10.9529 16.1777 10.455 16.4749 10.094 16.8335C9.69416 17.2308 9.13544 17.4726 8.53285 17.4726C7.93027 17.4726 7.37155 17.2308 6.97166 16.8335C6.61066 16.4749 6.11269 16.1754 5.63505 16.3509C5.39915 16.4375 5.1697 16.5354 4.94811 16.6459C4.52076 16.859 4.4072 17.3814 4.42686 17.8586C4.45079 18.439 4.23551 19.0145 3.78103 19.47C3.34408 19.908 2.79659 20.1243 2.2549 20.1336C1.7677 20.142 1.23801 20.2836 1.03457 20.7263C0.927907 20.9585 0.831524 21.1991 0.745419 21.4465C0.588229 21.8983 0.845528 22.3673 1.17642 22.7126C1.5587 23.1117 1.78833 23.6493 1.78833 24.233C1.78833 24.8142 1.56056 25.3499 1.19627 25.7484C0.880413 26.0939 0.636579 26.556 0.800155 26.9946C0.902359 27.2687 1.01941 27.5345 1.14691 27.7897C1.35475 28.2058 1.85118 28.3536 2.31562 28.3792C2.84703 28.4085 3.37112 28.6362 3.78103 29.0471C4.19366 29.4607 4.39802 29.9671 4.42526 30.4882C4.44892 30.9408 4.61446 31.4116 5.02574 31.6021C5.30839 31.733 5.59835 31.8492 5.89562 31.9508C6.32898 32.0988 6.78317 31.8674 7.13441 31.5736C7.52669 31.2454 8.04418 31.0445 8.58395 31.0445C9.14436 31.0445 9.65675 31.2611 10.0553 31.6118C10.383 31.9002 10.8156 32.1044 11.2294 31.9653C11.5417 31.8603 11.8459 31.7393 12.1422 31.6021C12.5534 31.4116 12.719 30.9408 12.7426 30.4882C12.7699 29.9671 12.9742 29.4607 13.3869 29.0471C13.8017 28.6313 14.3334 28.4265 14.8714 28.401C15.3253 28.3794 15.7971 28.2112 16.0017 27.8054C16.1288 27.5534 16.2458 27.2975 16.3487 27.0335C16.5256 26.5793 16.2565 26.1035 15.911 25.7596C15.5095 25.36 15.2774 24.8197 15.2774 24.233Z" stroke="#4BAEE9" stroke-miterlimit="10" stroke-linecap="round" stroke-linejoin="round"/>
<path d="M8.53286 27.562C10.4235 27.562 11.9562 26.0257 11.9562 24.1306C11.9562 22.2355 10.4235 20.6992 8.53286 20.6992C6.64219 20.6992 5.1095 22.2355 5.1095 24.1306C5.1095 26.0257 6.64219 27.562 8.53286 27.562Z" stroke="#4BAEE9" stroke-miterlimit="10" stroke-linecap="round" stroke-linejoin="round"/>
<path d="M32.8029 12.7612C32.8029 11.937 33.1583 11.1677 33.7491 10.6536C34.1259 10.3257 34.4033 9.83771 34.2462 9.36349C34.096 8.90992 33.9178 8.46476 33.7163 8.04184C33.5034 7.59515 32.9724 7.43844 32.4791 7.47737C31.6916 7.53952 30.887 7.26928 30.2482 6.66666C29.6328 6.04985 29.3649 5.17189 29.4443 4.33855C29.4896 3.86338 29.3491 3.34983 28.9261 3.12869C28.4955 2.9036 28.0427 2.71198 27.5676 2.55383C27.0907 2.39509 26.6033 2.68177 26.2873 3.07255C25.7693 3.71299 24.9735 4.10593 24.0657 4.10593C23.1623 4.10593 22.4252 3.68895 21.9363 3.03932C21.6315 2.63433 21.1384 2.34994 20.6593 2.51527C20.2183 2.66742 19.7875 2.84986 19.3666 3.06259C18.9177 3.28955 18.7747 3.83728 18.8242 4.33792C18.9035 5.14163 18.624 5.9754 17.9854 6.61544C17.3877 7.21459 16.5714 7.48517 15.7763 7.4272C15.2734 7.39054 14.7322 7.55902 14.5165 8.01472C14.3089 8.45337 14.1261 8.90294 13.9731 9.36341C13.823 9.81526 14.0676 10.284 14.4284 10.5947C15.0331 11.1154 15.4307 11.87 15.4307 12.71C15.4307 13.5449 15.0659 14.2955 14.5028 14.8158C14.1589 15.1335 13.9221 15.5958 14.0779 16.0373C14.2556 16.5411 14.4788 17.0319 14.7344 17.5097C14.9516 17.9157 15.4342 18.0731 15.8943 18.0562C16.649 18.0285 17.416 18.2981 17.9854 18.9069C18.5536 19.4765 18.841 20.2149 18.8267 20.9553C18.8178 21.4143 18.973 21.8971 19.3813 22.107C19.8702 22.3583 20.3728 22.5651 20.8891 22.7203C21.3132 22.8478 21.7435 22.6187 22.0503 22.2993C22.5675 21.7609 23.3135 21.4164 24.1168 21.4164C24.9268 21.4164 25.6494 21.7666 26.1748 22.3128C26.4796 22.6298 26.9143 22.8366 27.3338 22.7046C27.8607 22.5388 28.3608 22.3356 28.8339 22.1019C29.2511 21.8958 29.4133 21.407 29.4067 20.9417C29.3961 20.2059 29.6835 19.473 30.2482 18.9069C30.8226 18.3312 31.5979 18.0431 32.3589 18.0642C32.8096 18.0767 33.2839 17.9296 33.4957 17.5316C33.7369 17.0783 33.944 16.6002 34.1231 16.0973C34.2901 15.6283 34.0314 15.1317 33.6694 14.7899C33.1413 14.2913 32.8029 13.5654 32.8029 12.7612Z" stroke="#4BAEE9" stroke-miterlimit="10" stroke-linecap="round" stroke-linejoin="round"/>
<path d="M24.1168 18.3436C27.2773 18.3436 29.8394 15.7755 29.8394 12.6076C29.8394 9.43969 27.2773 6.87158 24.1168 6.87158C20.9563 6.87158 18.3942 9.43969 18.3942 12.6076C18.3942 15.7755 20.9563 18.3436 24.1168 18.3436Z" stroke="#4BAEE9" stroke-miterlimit="10" stroke-linecap="round" stroke-linejoin="round"/>
<path d="M24.0625 16.625C26.2371 16.625 28 14.8621 28 12.6875C28 10.5129 26.2371 8.75 24.0625 8.75C21.8879 8.75 20.125 10.5129 20.125 12.6875C20.125 14.8621 21.8879 16.625 24.0625 16.625Z" stroke="#4BAEE9" stroke-miterlimit="10" stroke-linecap="round" stroke-linejoin="round"/>
</svg>
