<svg width="100" height="100" viewBox="0 0 100 100" fill="none" xmlns="http://www.w3.org/2000/svg">
<path d="M29.4999 27C29.8319 27 77.1145 27 89.5014 27C90.606 27 91.4999 27.8954 91.4999 29V31C91.4999 32.1046 90.6044 33 89.4999 33H29.4999" stroke="#4BAEE9" stroke-linecap="round" stroke-linejoin="round"/>
<path d="M15.4999 85V31C15.4999 26.286 15.4999 23.9289 16.9643 22.4645C18.4288 21 20.7858 21 25.4999 21H29.4999C30.4289 21 30.8934 21 31.2821 21.0616C33.4215 21.4004 35.0995 23.0784 35.4383 25.2178C35.4999 25.6065 35.4999 26.071 35.4999 27V27M8.99988 85H41.4999V85C40.5709 85 40.1064 85 39.7177 84.9384C37.5782 84.5996 35.9003 82.9216 35.5614 80.7822C35.4999 80.3935 35.4999 79.929 35.4999 79V33M25.4999 35V35C28.2613 35 30.4999 32.7614 30.4999 30V30C30.4999 27.2386 28.2613 25 25.4999 25V25C22.7385 25 20.4999 27.2386 20.4999 30V30C20.4999 32.7614 22.7385 35 25.4999 35Z" stroke="#4BAEE9" stroke-linecap="round" stroke-linejoin="round"/>
<path d="M23.4999 30C23.4999 31.1046 24.3953 32 25.4999 32C26.6044 32 27.4999 31.1046 27.4999 30C27.4999 28.8954 26.6044 28 25.4999 28C24.3953 28 23.4999 28.8954 23.4999 30Z" stroke="#4BAEE9" stroke-linecap="round" stroke-linejoin="round"/>
<path d="M41.4999 27L35.4999 33M39.4999 33L45.4999 27" stroke="#4BAEE9" stroke-linecap="round" stroke-linejoin="round"/>
<path d="M55.4999 27L49.4999 33M53.4999 33L59.4999 27" stroke="#4BAEE9" stroke-linecap="round" stroke-linejoin="round"/>
<path d="M69.4999 27L63.4999 33M67.4999 33L73.4999 27" stroke="#4BAEE9" stroke-linecap="round" stroke-linejoin="round"/>
<path d="M83.4999 27L77.4999 33M81.4999 33L87.4999 27" stroke="#4BAEE9" stroke-linecap="round" stroke-linejoin="round"/>
</svg>
