<svg width="59" height="100" viewBox="0 0 59 100" fill="none" xmlns="http://www.w3.org/2000/svg">
<path d="M44.9999 84H21.9999M40.9999 78V40.2818C40.9999 39.0385 40.9999 38.4169 41.234 37.8595C41.4682 37.3021 41.9122 36.867 42.8001 35.9967L48.4604 30.4491C50.5895 28.3624 51.654 27.3191 51.6297 26.0257C51.6055 24.7323 50.5025 23.7297 48.2967 21.7244L46.2331 19.8484C44.2296 18.027 43.2278 17.1163 42.0271 17.1449C40.8264 17.1734 39.8691 18.1308 37.9545 20.0454L27.7572 30.2426C26.8901 31.1097 26.4566 31.5433 26.2282 32.0946C25.9999 32.6459 25.9999 33.259 25.9999 34.4853V78C25.9999 80.8284 25.9999 82.2426 26.8786 83.1213C27.7572 84 29.1715 84 31.9999 84H34.9999C37.8283 84 39.2425 84 40.1212 83.1213C40.9999 82.2426 40.9999 80.8284 40.9999 78Z" stroke="#4BAEE9" stroke-linecap="round" stroke-linejoin="round"/>
<path d="M48.9999 29V29C50.3806 30.3807 50.3806 32.6193 48.9999 34L47.9999 35C46.6192 36.3807 44.3806 36.3807 42.9999 35V35" stroke="#4BAEE9" stroke-linecap="round" stroke-linejoin="round"/>
<path d="M49.9999 31H76.7537C76.8823 31 76.9466 31 77.0007 31.0059C77.4671 31.0568 77.8354 31.4251 77.8863 31.8915C77.8922 31.9456 77.8922 32.0099 77.8922 32.1385V32.1385C77.8922 32.2671 77.8922 32.3314 77.8863 32.3855C77.8354 32.8518 77.4671 33.2201 77.0007 33.271C76.9466 33.2769 76.8823 33.2769 76.7537 33.2769H49.9999" stroke="#4BAEE9" stroke-linecap="round" stroke-linejoin="round"/>
<path d="M49.6099 33L68.5277 51.9178C68.6187 52.0088 68.6641 52.0542 68.6982 52.0967C68.992 52.4624 68.992 52.9833 68.6982 53.349C68.6641 53.3915 68.6187 53.4369 68.5277 53.5279V53.5279C68.4368 53.6188 68.3913 53.6642 68.3489 53.6983C67.9831 53.9921 67.4623 53.9921 67.0965 53.6983C67.0541 53.6642 67.0086 53.6188 66.9177 53.5279L47.9999 34.61" stroke="#4BAEE9" stroke-linecap="round" stroke-linejoin="round"/>
<path d="M47.9718 35L61.3487 58.1695C61.413 58.2809 61.4451 58.3366 61.4671 58.3864C61.6561 58.8157 61.5214 59.3188 61.1429 59.5961C61.099 59.6282 61.0433 59.6604 60.932 59.7247V59.7247C60.8206 59.789 60.7649 59.8211 60.7151 59.8431C60.2858 60.0321 59.7827 59.8973 59.5054 59.5189C59.4733 59.475 59.4411 59.4193 59.3768 59.308L45.9999 36.1385" stroke="#4BAEE9" stroke-linecap="round" stroke-linejoin="round"/>
</svg>
