<svg width="16" height="23" viewBox="0 0 16 23" fill="none" xmlns="http://www.w3.org/2000/svg">
<path d="M13.2575 20.0171L15.1922 11.7708C15.5895 10.0776 14.869 8.88312 13.2072 8.49324L5.50963 6.68729C3.84783 6.29741 2.68602 6.98417 2.28879 8.67733L0.339389 16.9863C-0.0431336 18.6168 0.662592 19.874 2.32439 20.2639L10.0769 22.0827C11.7308 22.4708 12.8622 21.7024 13.2575 20.0171ZM12.1528 7.03015L15.0864 4.89C15.444 4.63482 15.7052 4.33222 15.7824 4.00299C15.9314 3.36806 15.5779 2.83026 14.8881 2.66843L6.63393 0.731905C5.94412 0.570068 5.38833 0.894532 5.23937 1.52947C5.16029 1.86653 5.2615 2.24589 5.46829 2.63348L7.14391 5.855L12.1528 7.03015Z" fill="#8DBCFF"/>
</svg>
