<svg width="20" height="16" viewBox="0 0 20 16" fill="none" xmlns="http://www.w3.org/2000/svg">
<path d="M17.2201 0.5H2.77989C0.954795 0.5 0 1.46942 0 3.3217V4.10069H20V3.3217C20 1.46942 19.0537 0.5 17.2201 0.5ZM3.5319 12.7302C3.03338 12.7302 2.69539 12.3927 2.69539 11.8993V10.298C2.69539 9.81333 3.03338 9.46711 3.5319 9.46711H5.60203C6.0921 9.46711 6.43008 9.81333 6.43008 10.298V11.8993C6.43008 12.3927 6.0921 12.7302 5.60203 12.7302H3.5319ZM2.77989 15.5H17.2201C19.0537 15.5 20 14.5219 20 12.6696V6.13474H0V12.6696C0 14.5306 0.954795 15.5 2.77989 15.5Z" fill="#1D86FF"/>
</svg>
