<svg width="38" height="38" viewBox="0 0 38 38" fill="none" xmlns="http://www.w3.org/2000/svg">
<path d="M19 38C18.5084 38 18.096 37.834 17.7628 37.502C17.4297 37.17 17.2637 36.7576 17.2648 36.2648V34.5297C13.6499 34.1248 10.548 32.6285 7.95918 30.0408C5.37032 27.4531 3.87403 24.3512 3.47032 20.7352H1.73516C1.24353 20.7352 0.83172 20.5686 0.499726 20.2354C0.167732 19.9023 0.00115677 19.4905 0 19C0 18.5084 0.166575 18.096 0.499726 17.7628C0.832877 17.4297 1.24469 17.2637 1.73516 17.2648H3.47032C3.87519 13.6499 5.37205 10.548 7.96091 7.95918C10.5498 5.37032 13.6511 3.87403 17.2648 3.47032V1.73516C17.2648 1.24353 17.4314 0.83172 17.7646 0.499726C18.0977 0.167732 18.5095 0.00115677 19 0C19.4916 0 19.904 0.166575 20.2372 0.499726C20.5703 0.832877 20.7363 1.24469 20.7352 1.73516V3.47032C24.3501 3.87519 27.452 5.37205 30.0408 7.96091C32.6297 10.5498 34.126 13.6511 34.5297 17.2648H36.2648C36.7565 17.2648 37.1689 17.4314 37.502 17.7646C37.8352 18.0977 38.0012 18.5095 38 19C38 19.4916 37.834 19.904 37.502 20.2372C37.17 20.5703 36.7576 20.7363 36.2648 20.7352H34.5297C34.1248 24.3501 32.6285 27.452 30.0408 30.0408C27.4531 32.6297 24.3512 34.126 20.7352 34.5297V36.2648C20.7352 36.7565 20.5686 37.1689 20.2354 37.502C19.9023 37.8352 19.4905 38.0012 19 38ZM19 31.1461C22.3546 31.1461 25.2177 29.9604 27.589 27.589C29.9604 25.2177 31.1461 22.3546 31.1461 19C31.1461 15.6454 29.9604 12.7823 27.589 10.411C25.2177 8.03957 22.3546 6.85388 19 6.85388C15.6454 6.85388 12.7823 8.03957 10.411 10.411C8.03957 12.7823 6.85388 15.6454 6.85388 19C6.85388 22.3546 8.03957 25.2177 10.411 27.589C12.7823 29.9604 15.6454 31.1461 19 31.1461ZM19 25.9406C17.0913 25.9406 15.4574 25.261 14.0982 23.9018C12.739 22.5426 12.0594 20.9087 12.0594 19C12.0594 17.0913 12.739 15.4574 14.0982 14.0982C15.4574 12.739 17.0913 12.0594 19 12.0594C20.9087 12.0594 22.5426 12.739 23.9018 14.0982C25.261 15.4574 25.9406 17.0913 25.9406 19C25.9406 20.9087 25.261 22.5426 23.9018 23.9018C22.5426 25.261 20.9087 25.9406 19 25.9406Z" fill="#1274FF"/>
</svg>
