<svg width="190" height="49" viewBox="0 0 190 49" fill="none" xmlns="http://www.w3.org/2000/svg">
<path fill-rule="evenodd" clip-rule="evenodd" d="M78.1376 36.5751L72.7885 20.5571H68.2457L62.877 36.5751H66.1611L67.5967 32.2487H73.3785L74.7551 36.5751H78.1376ZM72.7492 29.8942H68.2654L70.5073 22.9115L72.7492 29.8942Z" fill="#4D4D4D"/>
<path fill-rule="evenodd" clip-rule="evenodd" d="M93.241 36.5752L87.9902 28.3851L93.005 20.5371H89.3472L85.1584 27.1375H83.0934V20.5371H79.9272V36.5752H83.0934V29.6328H85.1584L89.5242 36.5752H93.241Z" fill="#4D4D4D"/>
<path fill-rule="evenodd" clip-rule="evenodd" d="M109.819 36.5752V34.2611H107.715V20.5371H104.549V34.08H98.4523V20.5371H95.2861V36.5752H99.6913H107.125H109.819Z" fill="#4D4D4D"/>
<path fill-rule="evenodd" clip-rule="evenodd" d="M123.585 36.5752V34.2611H115.64V29.4516H122.799V27.2985H115.64V22.8513H123.448V20.5371H112.454V36.5752H123.585Z" fill="#4D4D4D"/>
<path fill-rule="evenodd" clip-rule="evenodd" d="M138.649 36.5752V20.5371H135.464V27.1375H129.387V20.5371H126.201V36.5752H129.387V29.6328H135.464V36.5752H138.649Z" fill="#4D4D4D"/>
<path fill-rule="evenodd" clip-rule="evenodd" d="M152.986 23.0525V20.5371H140.812V23.0525H145.296V36.5752H148.502V23.0525H152.986Z" fill="#4D4D4D"/>
<path d="M160.557 28.4458H153.654V30.8002H160.557V28.4458Z" fill="#4D4D4D"/>
<path fill-rule="evenodd" clip-rule="evenodd" d="M174.303 36.354V34.1203C174.303 34.1203 171.57 34.3819 169.171 34.3417C166.299 34.2612 166.221 34.3014 166.221 28.8682C166.221 22.8312 166.476 22.8514 169.151 22.791C171.471 22.7105 174.166 23.0123 174.166 23.0123V20.7586C174.166 20.7586 172.002 20.2354 168.561 20.2354C163.566 20.2354 162.917 21.6641 162.917 28.8078C162.917 35.4283 163.212 36.8369 168.62 36.8369C172.12 36.857 174.303 36.354 174.303 36.354Z" fill="#4D4D4D"/>
<path fill-rule="evenodd" clip-rule="evenodd" d="M189.131 31.8262C189.131 27.2985 187.008 27.2985 184.136 27.2985H180.046V22.8513H188.187V20.5371H176.86V36.5551H184.235C186.949 36.5752 189.131 36.5752 189.131 31.8262ZM185.867 31.8262C185.867 34.2611 185.238 34.2611 183.468 34.2611H180.046V29.4516H183.409C185.375 29.4516 185.867 29.4516 185.867 31.8262Z" fill="#4D4D4D"/>
<path fill-rule="evenodd" clip-rule="evenodd" d="M14.8044 48.6185H0L17.6539 0.625488H32.4583L14.8044 48.6185Z" fill="#4BAEE9"/>
<path fill-rule="evenodd" clip-rule="evenodd" d="M34.5545 40.7089H27.6108L38.5831 10.8809L52.0774 48.6184H36.9127L34.5545 40.7089Z" fill="#4BAEE9"/>
</svg>
