<svg width="20" height="20" viewBox="0 0 20 20" fill="none" xmlns="http://www.w3.org/2000/svg">
<path fill-rule="evenodd" clip-rule="evenodd" d="M10 20C15.5228 20 20 15.5228 20 10C20 4.47715 15.5228 0 10 0C4.47715 0 0 4.47715 0 10C0 15.5228 4.47715 20 10 20ZM10.8398 6.40625H9.57031V9.57031H10.8333C12.0443 9.57031 12.6628 8.96484 12.6628 7.98177C12.6628 7.01172 12.0508 6.40625 10.8398 6.40625ZM12.1745 11.9531V13.0664H9.57031V14.3945H7.89063V13.0664H6.66667V11.9531H7.89063V10.9049H6.66667V9.58984H7.89063V5H11.3281C13.1641 5 14.3685 6.25 14.3685 7.96875C14.3685 9.68099 13.1185 10.9245 11.2565 10.9245H9.57031V11.9531H12.1745Z" fill="#1D86FF"/>
</svg>
