<svg width="22" height="22" viewBox="0 0 22 22" fill="none" xmlns="http://www.w3.org/2000/svg">
<path d="M11 21C9.68749 21.0002 8.38809 20.7402 7.17676 20.2349C5.96543 19.7295 4.86659 18.9888 3.94336 18.0559C3.01074 17.1327 2.26981 16.0339 1.76465 14.8228C1.25949 13.6116 0.999776 12.3123 1 11C1.00021 9.68833 1.26066 8.38978 1.76563 7.1792C2.27059 5.96862 3.01044 4.87004 3.94238 3.94702C4.86383 3.01401 5.96108 2.2732 7.1709 1.76733C8.38072 1.26147 9.67891 1.00058 10.9902 1C12.3038 1.00015 13.6041 1.26077 14.8164 1.7666C16.0287 2.27244 17.1286 3.01347 18.0527 3.94702C18.9859 4.86936 19.7275 5.96757 20.2334 7.17822C20.7393 8.38888 20.9996 9.68791 21 11C21.0004 12.3122 20.7403 13.6114 20.2354 14.8225C19.7304 16.0337 18.9901 17.1326 18.0576 18.0559C17.1342 18.9889 16.0357 19.7295 14.8242 20.2349C13.6127 20.7402 12.3127 21.0003 11 21ZM10.7441 14.053C10.5805 14.0456 10.4164 14.0711 10.2627 14.1277C10.109 14.1843 9.9684 14.2711 9.84863 14.3828C9.72886 14.4946 9.63254 14.6291 9.56543 14.7786C9.49832 14.928 9.46197 15.0892 9.45801 15.2529C9.46147 15.4173 9.49765 15.5795 9.56445 15.7297C9.63126 15.88 9.72694 16.0153 9.84668 16.1279C9.96641 16.2406 10.1077 16.3282 10.2617 16.3857C10.4157 16.4433 10.5799 16.4694 10.7441 16.4629C10.9084 16.4694 11.0726 16.4433 11.2266 16.3857C11.3806 16.3282 11.5209 16.2406 11.6406 16.1279C11.7604 16.0153 11.857 15.88 11.9238 15.7297C11.9906 15.5795 12.0268 15.4173 12.0303 15.2529C12.0263 15.0891 11.989 14.9278 11.9219 14.7783C11.8547 14.6288 11.7585 14.4941 11.6387 14.3823C11.5188 14.2706 11.3784 14.184 11.2246 14.1274C11.0708 14.0709 10.9069 14.0455 10.7432 14.053H10.7441ZM10.9746 6.96289C11.1577 6.94108 11.3441 6.95758 11.5205 7.01099C11.697 7.06439 11.8598 7.15377 12 7.27344C12.1402 7.3931 12.2545 7.54045 12.335 7.7063C12.4155 7.87214 12.4605 8.05285 12.4678 8.23706C12.4678 8.92206 12.0152 9.26692 11.0732 9.91992C10.6801 10.1188 10.3473 10.4195 10.1094 10.7903C9.87147 11.1611 9.73666 11.5888 9.71973 12.0291V12.1499C9.71973 12.7499 10.086 13.0869 10.752 13.0869C10.9926 13.1164 11.2353 13.0494 11.4268 12.9006C11.6182 12.7519 11.7435 12.5335 11.7744 12.293V12.1621C11.8074 11.5761 12.236 11.1839 12.918 10.7429C13.928 10.0729 14.6992 9.45493 14.6992 8.12793C14.7064 7.71319 14.6128 7.3029 14.4268 6.93213C14.2408 6.56136 13.9676 6.24125 13.6309 5.99902C12.8906 5.48549 12.0061 5.22206 11.1055 5.24707C9.37947 5.24707 7.96966 6.00696 7.59766 7.13696C7.53141 7.32039 7.49797 7.51396 7.49805 7.70898C7.49684 7.82191 7.51792 7.934 7.56055 8.03857C7.60318 8.14315 7.66629 8.23821 7.74609 8.31812C7.8259 8.39802 7.92087 8.46115 8.02539 8.50391C8.12992 8.54666 8.24254 8.56797 8.35547 8.56689C8.53087 8.57267 8.70452 8.53336 8.86035 8.45264C9.01619 8.37192 9.14864 8.25256 9.24512 8.10596L9.42285 7.88696C9.57119 7.60489 9.79444 7.36945 10.0684 7.20654C10.3423 7.04364 10.6559 6.95978 10.9746 6.96411V6.96289Z" fill="#B9C6D1"/>
</svg>
